# File created by Blade
# Date/Time:  Wed Apr 08 17:35:25 2015
# Frame Rate: 120.000 fps
#------------------------------------------------------
:FULLY-SPECIFIED
:DEGREES
2676
root 9.191978 36.456518 -2.589730 226.789561 -84.499462 -194.395264
Spine -24.623507 -0.472047 -6.449607
Head 50.217718 -8.576748 13.002676
LeftShoulder -7.580171 17.686927 22.507905
LeftArm 19.198942 -25.871919 -47.288961
LeftForeArm 17.547354 -0.000000 27.519001
LeftHand -13.009925 -0.000000 -7.729522
LeftHandThumb1 -26.253704 0.000000 33.147579
RightShoulder -33.437309 -46.765331 3.629304
RightArm 52.382432 29.278889 60.071951
RightForeArm 5.300311 -0.000000 13.848886
RightHand 1.333419 -0.000000 4.645597
RightHandThumb1 -24.326973 -0.000000 -32.862282
LeftUpLeg -36.132855 12.209604 -3.612675
LeftLeg 11.340801 -0.000000 -0.000000
LeftFoot -6.956549 5.028572 -8.231014
LeftToeBase 6.881407 -0.000000 -0.000000
RightUpLeg -33.393439 -8.756702 -7.788687
RightLeg 10.456108 -0.000000 -0.000000
RightFoot -8.128118 -5.519007 24.686983
RightToeBase 7.836627 -0.000000 -0.000000
2677
root 9.211722 36.447896 -2.637484 227.797774 -84.551536 -195.395880
Spine -24.596641 -0.432802 -6.322784
Head 50.142062 -8.734892 12.941468
LeftShoulder -7.506829 17.639034 22.604015
LeftArm 19.122936 -26.250886 -47.021619
LeftForeArm 17.425899 0.000000 27.209303
LeftHand -12.998983 -0.000000 -7.677872
LeftHandThumb1 -26.253704 0.000000 33.147579
RightShoulder -33.308425 -46.667948 3.372901
RightArm 52.468181 29.782627 59.873379
RightForeArm 5.294676 -0.000000 13.841743
RightHand 1.318119 0.000000 4.440635
RightHandThumb1 -24.326973 -0.000000 -32.862282
LeftUpLeg -36.144378 12.212581 -3.611559
LeftLeg 11.264450 -0.000000 -0.000000
LeftFoot -6.872728 4.947545 -8.257945
LeftToeBase 6.891856 -0.000000 -0.000000
RightUpLeg -33.381023 -8.697468 -7.782292
RightLeg 10.422853 -0.000000 -0.000000
RightFoot -8.403277 -5.681084 24.585774
RightToeBase 8.019462 -0.000000 -0.000000
2678
root 9.231965 36.438757 -2.684148 229.094767 -84.633460 -196.730366
Spine -24.508224 -0.420309 -6.197887
Head 50.071296 -8.906531 12.894145
LeftShoulder -7.433049 17.565006 22.681111
LeftArm 19.083676 -26.687881 -46.785294
LeftForeArm 17.398803 -0.000000 26.880538
LeftHand -13.050706 0.000000 -7.588045
LeftHandThumb1 -26.253704 0.000000 33.147579
RightShoulder -33.221999 -46.583134 3.156523
RightArm 52.705182 30.384799 59.890936
RightForeArm 5.085457 0.000000 13.789844
RightHand 1.256895 -0.000000 4.218048
RightHandThumb1 -24.326973 -0.000000 -32.862282
LeftUpLeg -36.110085 12.167226 -3.588669
LeftLeg 11.182604 -0.000000 -0.000000
LeftFoot -6.782937 4.847421 -8.349581
LeftToeBase 6.916806 -0.000000 -0.000000
RightUpLeg -33.324584 -8.674697 -7.780924
RightLeg 10.411079 -0.000000 -0.000000
RightFoot -8.699785 -5.844218 24.444132
RightToeBase 8.227449 -0.000000 -0.000000
2679
root 9.249203 36.428422 -2.729039 230.166323 -84.676681 -197.880953
Spine -24.377592 -0.395558 -6.085868
Head 50.011792 -9.078368 12.830195
LeftShoulder -7.361389 17.462534 22.793872
LeftArm 18.995621 -27.141842 -46.588834
LeftForeArm 17.372803 0.000000 26.540176
LeftHand -12.949996 -0.000000 -7.588733
LeftHandThumb1 -26.253704 0.000000 33.147579
RightShoulder -33.112127 -46.500952 2.951694
RightArm 52.883589 30.924461 59.776363
RightForeArm 5.041816 0.000000 13.731127
RightHand 1.330038 0.000000 4.110379
RightHandThumb1 -24.326973 -0.000000 -32.862282
LeftUpLeg -36.024368 12.191820 -3.589044
LeftLeg 11.096611 -0.000000 -0.000000
LeftFoot -6.719100 4.715541 -8.384093
LeftToeBase 6.975659 -0.000000 -0.000000
RightUpLeg -33.236599 -8.603122 -7.805045
RightLeg 10.410481 -0.000000 -0.000000
RightFoot -8.993161 -6.010260 24.308356
RightToeBase 8.452515 -0.000000 -0.000000
2680
root 9.266082 36.417823 -2.773377 231.279782 -84.695217 -199.110961
Spine -24.199475 -0.374978 -6.009218
Head 49.957239 -9.231576 12.808360
LeftShoulder -7.307740 17.366818 22.899046
LeftArm 18.928464 -27.614155 -46.381471
LeftForeArm 17.371886 -0.000000 26.222408
LeftHand -12.959452 -0.000000 -7.644204
LeftHandThumb1 -26.253704 0.000000 33.147579
RightShoulder -32.947993 -46.340964 2.677825
RightArm 52.963848 31.352137 59.576215
RightForeArm 5.071522 -0.000000 13.631239
RightHand 1.361417 -0.000000 3.933749
RightHandThumb1 -24.326973 -0.000000 -32.862282
LeftUpLeg -35.893936 12.208202 -3.585550
LeftLeg 11.012210 -0.000000 -0.000000
LeftFoot -6.657056 4.583597 -8.466993
LeftToeBase 7.031761 -0.000000 -0.000000
RightUpLeg -33.124071 -8.540882 -7.848648
RightLeg 10.419675 -0.000000 -0.000000
RightFoot -9.263075 -6.141090 24.164791
RightToeBase 8.584763 -0.000000 -0.000000
2681
root 9.285090 36.409368 -2.815484 232.411884 -84.690239 -200.304084
Spine -24.087948 -0.334808 -5.957252
Head 49.903877 -9.415043 12.786803
LeftShoulder -7.235200 17.228647 23.015864
LeftArm 18.835172 -28.063852 -46.168088
LeftForeArm 17.317435 -0.000000 25.892164
LeftHand -12.999042 0.000000 -7.650320
LeftHandThumb1 -26.253704 0.000000 33.147579
RightShoulder -32.832808 -46.209599 2.440813
RightArm 53.125338 31.832335 59.524038
RightForeArm 4.955687 -0.000000 13.558969
RightHand 1.333177 -0.000000 3.809667
RightHandThumb1 -24.326973 -0.000000 -32.862282
LeftUpLeg -35.816137 12.219692 -3.601654
LeftLeg 10.916957 -0.000000 -0.000000
LeftFoot -6.565147 4.470423 -8.561561
LeftToeBase 7.035687 -0.000000 -0.000000
RightUpLeg -33.077167 -8.449057 -7.912494
RightLeg 10.433294 -0.000000 -0.000000
RightFoot -9.517755 -6.304723 24.047426
RightToeBase 8.686479 -0.000000 -0.000000
2682
root 9.304236 36.401067 -2.858527 233.260673 -84.672116 -201.226806
Spine -23.959201 -0.306078 -5.899313
Head 49.869179 -9.559118 12.733378
LeftShoulder -7.177834 17.056269 23.151320
LeftArm 18.705141 -28.569301 -45.998833
LeftForeArm 17.309096 -0.000000 25.560063
LeftHand -12.944357 -0.000000 -7.645118
LeftHandThumb1 -26.253704 0.000000 33.147579
RightShoulder -32.680625 -46.083789 2.216168
RightArm 53.250039 32.268956 59.361249
RightForeArm 4.991612 -0.000000 13.465478
RightHand 1.405743 -0.000000 3.784378
RightHandThumb1 -24.326973 -0.000000 -32.862282
LeftUpLeg -35.715188 12.223558 -3.591501
LeftLeg 10.802412 -0.000000 -0.000000
LeftFoot -6.476079 4.427875 -8.594734
LeftToeBase 7.057092 -0.000000 -0.000000
RightUpLeg -33.004927 -8.297316 -7.987825
RightLeg 10.421044 -0.000000 -0.000000
RightFoot -9.774062 -6.506791 23.956213
RightToeBase 8.829915 -0.000000 -0.000000
2683
root 9.326147 36.394958 -2.901364 233.990504 -84.659129 -201.983509
Spine -23.881153 -0.279088 -5.821458
Head 49.832239 -9.712503 12.693760
LeftShoulder -7.124110 16.920206 23.261154
LeftArm 18.546547 -28.969108 -45.740010
LeftForeArm 17.233662 -0.000000 25.265830
LeftHand -13.070654 -0.000000 -7.522632
LeftHandThumb1 -26.253704 0.000000 33.147579
RightShoulder -32.548811 -45.937970 1.972988
RightArm 53.372202 32.648941 59.203699
RightForeArm 4.929756 -0.000000 13.369154
RightHand 1.456335 -0.000000 3.610226
RightHandThumb1 -24.326973 -0.000000 -32.862282
LeftUpLeg -35.686279 12.263166 -3.594531
LeftLeg 10.722207 -0.000000 -0.000000
LeftFoot -6.382341 4.331687 -8.686180
LeftToeBase 7.072313 -0.000000 -0.000000
RightUpLeg -32.970565 -8.096362 -8.076110
RightLeg 10.388592 -0.000000 -0.000000
RightFoot -9.999998 -6.725102 23.903896
RightToeBase 8.935114 -0.000000 -0.000000
2684
root 9.351122 36.390705 -2.943212 234.424127 -84.623700 -202.419428
Spine -23.828862 -0.230339 -5.746908
Head 49.808953 -9.830234 12.672966
LeftShoulder -7.092852 16.848072 23.373724
LeftArm 18.496839 -29.425157 -45.557894
LeftForeArm 17.155478 -0.000000 24.921473
LeftHand -13.046997 -0.000000 -7.600365
LeftHandThumb1 -26.253704 0.000000 33.147579
RightShoulder -32.388308 -45.803958 1.692828
RightArm 53.489591 33.012358 59.103679
RightForeArm 4.848340 -0.000000 13.310240
RightHand 1.459794 -0.000000 3.515419
RightHandThumb1 -24.326973 -0.000000 -32.862282
LeftUpLeg -35.681872 12.292790 -3.581176
LeftLeg 10.646884 -0.000000 -0.000000
LeftFoot -6.290843 4.287878 -8.769925
LeftToeBase 7.065011 -0.000000 -0.000000
RightUpLeg -32.980556 -7.894530 -8.148957
RightLeg 10.365411 -0.000000 -0.000000
RightFoot -10.186561 -6.906713 23.864098
RightToeBase 9.039864 -0.000000 -0.000000
2685
root 9.375816 36.387827 -2.983800 234.682946 -84.606971 -202.677804
Spine -23.774518 -0.193269 -5.630289
Head 49.793490 -9.939745 12.622034
LeftShoulder -7.057323 16.719593 23.474811
LeftArm 18.342847 -29.793963 -45.315063
LeftForeArm 16.995741 0.000000 24.602823
LeftHand -13.066037 0.000000 -7.507838
LeftHandThumb1 -26.253704 0.000000 33.147579
RightShoulder -32.236147 -45.676213 1.423655
RightArm 53.599659 33.351793 58.958132
RightForeArm 4.767678 -0.000000 13.251396
RightHand 1.385327 -0.000000 3.282731
RightHandThumb1 -24.326973 -0.000000 -32.862282
LeftUpLeg -35.671781 12.315937 -3.548312
LeftLeg 10.553938 -0.000000 -0.000000
LeftFoot -6.206108 4.281483 -8.813464
LeftToeBase 7.101513 -0.000000 -0.000000
RightUpLeg -32.990911 -7.739682 -8.177999
RightLeg 10.335889 -0.000000 -0.000000
RightFoot -10.310174 -7.047738 23.828935
RightToeBase 9.065297 -0.000000 -0.000000
2686
root 9.400838 36.387964 -3.025796 234.663956 -84.616743 -202.646524
Spine -23.740331 -0.164234 -5.472665
Head 49.809222 -10.037507 12.561809
LeftShoulder -7.005867 16.597981 23.593595
LeftArm 18.168804 -30.126863 -45.087376
LeftForeArm 16.803660 -0.000000 24.248235
LeftHand -13.203536 -0.000000 -7.350882
LeftHandThumb1 -26.253704 0.000000 33.147579
RightShoulder -32.087784 -45.577616 1.174927
RightArm 53.760334 33.751337 58.942930
RightForeArm 4.604988 -0.000000 13.300274
RightHand 1.290371 0.000000 3.195585
RightHandThumb1 -24.326973 -0.000000 -32.862282
LeftUpLeg -35.682596 12.368690 -3.500332
LeftLeg 10.463234 -0.000000 -0.000000
LeftFoot -6.099168 4.270603 -8.822301
LeftToeBase 7.121106 -0.000000 -0.000000
RightUpLeg -32.983103 -7.538365 -8.188243
RightLeg 10.254017 -0.000000 -0.000000
RightFoot -10.408697 -7.227485 23.819707
RightToeBase 9.124305 -0.000000 -0.000000
2687
root 9.425966 36.388920 -3.067335 234.592983 -84.641274 -202.558900
Spine -23.701633 -0.167894 -5.279857
Head 49.824287 -10.063673 12.499180
LeftShoulder -7.023782 16.555750 23.646825
LeftArm 18.060851 -30.432597 -44.814559
LeftForeArm 16.613989 -0.000000 23.908423
LeftHand -13.220558 0.000000 -7.343780
LeftHandThumb1 -26.253704 0.000000 33.147579
RightShoulder -31.919121 -45.488224 0.907506
RightArm 53.912140 34.115649 58.899421
RightForeArm 4.468054 -0.000000 13.404577
RightHand 1.007448 -0.000000 3.198930
RightHandThumb1 -24.326973 -0.000000 -32.862282
LeftUpLeg -35.707930 12.407073 -3.437928
LeftLeg 10.388186 -0.000000 -0.000000
LeftFoot -5.999803 4.276485 -8.854248
LeftToeBase 7.130376 -0.000000 -0.000000
RightUpLeg -32.987564 -7.367702 -8.172918
RightLeg 10.187849 -0.000000 -0.000000
RightFoot -10.484021 -7.375252 23.802762
RightToeBase 9.213466 -0.000000 -0.000000
2688
root 9.451223 36.391666 -3.108505 234.161913 -84.665188 -202.121421
Spine -23.650874 -0.123236 -5.081320
Head 49.848820 -10.122205 12.439259
LeftShoulder -7.001440 16.510926 23.734075
LeftArm 17.948815 -30.723970 -44.587039
LeftForeArm 16.403951 0.000000 23.570341
LeftHand -13.106384 -0.000000 -7.249695
LeftHandThumb1 -26.253704 0.000000 33.147579
RightShoulder -31.800263 -45.377150 0.673356
RightArm 54.044274 34.428684 58.797363
RightForeArm 4.404043 -0.000000 13.382235
RightHand 1.084758 -0.000000 3.053008
RightHandThumb1 -24.326973 -0.000000 -32.862282
LeftUpLeg -35.723835 12.466476 -3.353413
LeftLeg 10.318534 -0.000000 -0.000000
LeftFoot -5.898178 4.299190 -8.865046
LeftToeBase 7.128088 -0.000000 -0.000000
RightUpLeg -32.998469 -7.213185 -8.115788
RightLeg 10.132687 -0.000000 -0.000000
RightFoot -10.505915 -7.502080 23.764820
RightToeBase 9.254371 -0.000000 -0.000000
